<svg xmlns="http://www.w3.org/2000/svg" xmlns:xlink="http://www.w3.org/1999/xlink">
    <symbol id="send" viewBox="0 0 15 17" fill="none" >
     <path d="M8.83337 16.2498L7.55004 14.9436L10.8271 11.6665H0.583374V0.666504H2.41671V9.83317H10.8271L7.52712 6.53317L8.83337 5.22692L14.3334 10.7498L8.83337 16.2498Z" fill="#808080" stroke="#808080"/>
    </symbol>    
    <symbol id="attachments" viewBox="0 0 19 18" fill="none">
    <path xmlns="http://www.w3.org/2000/svg" d="M11.4787 3.07531C11.7952 2.79716 12.1634 2.58408 12.5622 2.44823C12.961 2.31237 13.3827 2.25641 13.8032 2.28353C14.2237 2.31065 14.6347 2.42032 15.0128 2.60628C15.3909 2.79224 15.7286 3.05085 16.0068 3.36735C16.2849 3.68384 16.498 4.05202 16.6339 4.45086C16.7697 4.84971 16.8257 5.2714 16.7986 5.69188C16.7714 6.11235 16.6618 6.52336 16.4758 6.90145C16.2898 7.27954 16.0312 7.61729 15.7147 7.89544L8.1408 14.5516C7.50161 15.1133 6.66545 15.3982 5.81627 15.3434C4.96708 15.2886 4.17444 14.8988 3.6127 14.2596C3.33456 13.9431 3.12148 13.5749 2.98563 13.176C2.84977 12.7772 2.79381 12.3555 2.82092 11.935C2.87569 11.0859 3.26555 10.2932 3.90474 9.73147L7.86407 6.25192C7.97711 6.15257 8.10862 6.07647 8.25107 6.02794C8.39353 5.97942 8.54414 5.95943 8.69433 5.96912C8.84451 5.9788 8.99131 6.01797 9.12635 6.08439C9.26139 6.15081 9.38203 6.24318 9.48138 6.35623C9.58072 6.46927 9.65683 6.60077 9.70535 6.74323C9.75387 6.88568 9.77386 7.0363 9.76418 7.18648C9.75449 7.33666 9.71532 7.48346 9.6489 7.61851C9.58248 7.75355 9.49011 7.87419 9.37707 7.97353L5.76154 11.1501C5.57882 11.3107 5.46738 11.5372 5.45172 11.78C5.43607 12.0227 5.51748 12.2618 5.67806 12.4445C5.83863 12.6272 6.06522 12.7386 6.30797 12.7543C6.55071 12.77 6.78973 12.6885 6.97245 12.528L10.5871 9.35043C11.1723 8.82658 11.5269 8.09286 11.5738 7.30888C11.6208 6.5249 11.3563 5.7541 10.8378 5.16416C10.3194 4.57422 9.58892 4.21287 8.80541 4.15872C8.02189 4.10457 7.24869 4.362 6.65401 4.87502L2.69469 8.35457C2.1923 8.79015 1.78104 9.3208 1.48458 9.91598C1.18812 10.5112 1.01232 11.1591 0.967297 11.8225C0.922278 12.4859 1.00893 13.1516 1.22227 13.7814C1.4356 14.4112 1.77141 14.9925 2.21034 15.492C2.64928 15.9915 3.18268 16.3992 3.77983 16.6916C4.37698 16.9841 5.02608 17.1555 5.68976 17.1961C6.35345 17.2367 7.0186 17.1456 7.64693 16.928C8.27526 16.7105 8.85435 16.3708 9.35085 15.9285L16.9248 9.27234C17.4272 8.83676 17.8384 8.30611 18.1349 7.71093C18.4314 7.11575 18.6072 6.46781 18.6522 5.80441C18.6972 5.14102 18.6105 4.47527 18.3972 3.8455C18.1839 3.21572 17.8481 2.63437 17.4091 2.13492C16.9702 1.63546 16.4368 1.22776 15.8397 0.935293C15.2425 0.642827 14.5934 0.471372 13.9297 0.4308C13.266 0.390228 12.6009 0.48134 11.9725 0.69889C11.3442 0.91644 10.7651 1.25613 10.2686 1.6984L9.92489 2.00049C9.83202 2.07917 9.75576 2.17556 9.70054 2.28404C9.64533 2.39251 9.61227 2.5109 9.60329 2.63228C9.59432 2.75367 9.60961 2.87563 9.64827 2.99104C9.68693 3.10646 9.7482 3.21301 9.82848 3.3045C9.90877 3.39598 10.0065 3.47057 10.1159 3.52389C10.2253 3.57721 10.3442 3.60821 10.4658 3.61507C10.5873 3.62194 10.709 3.60453 10.8237 3.56387C10.9384 3.52321 11.0439 3.46011 11.134 3.37825L11.4787 3.07531Z" fill="#808080" stroke="#808080"/>
    </symbol>
    <symbol id="close" viewBox="0 0 18 18" fill="none">
    <path xmlns="http://www.w3.org/2000/svg" d="M13.8166 4.28267C13.7506 4.21314 13.6723 4.15798 13.586 4.12034C13.4997 4.08271 13.4072 4.06333 13.3138 4.06333C13.2204 4.06333 13.1279 4.08271 13.0416 4.12034C12.9553 4.15798 12.8769 4.21314 12.811 4.28267L9.32324 7.94267L5.83552 4.27517C5.76949 4.20573 5.6911 4.15065 5.60482 4.11307C5.51855 4.07549 5.42608 4.05615 5.33269 4.05615C5.23931 4.05615 5.14684 4.07549 5.06056 4.11307C4.97429 4.15065 4.89589 4.20573 4.82986 4.27517C4.76383 4.3446 4.71145 4.42704 4.67571 4.51776C4.63998 4.60848 4.62158 4.70572 4.62158 4.80392C4.62158 4.90212 4.63998 4.99935 4.67571 5.09008C4.71145 5.1808 4.76383 5.26323 4.82986 5.33267L8.31758 9.00017L4.82986 12.6677C4.76383 12.7371 4.71145 12.8195 4.67571 12.9103C4.63998 13.001 4.62158 13.0982 4.62158 13.1964C4.62158 13.2946 4.63998 13.3919 4.67571 13.4826C4.71145 13.5733 4.76383 13.6557 4.82986 13.7252C4.89589 13.7946 4.97429 13.8497 5.06056 13.8873C5.14684 13.9248 5.23931 13.9442 5.33269 13.9442C5.42608 13.9442 5.51855 13.9248 5.60482 13.8873C5.6911 13.8497 5.76949 13.7946 5.83552 13.7252L9.32324 10.0577L12.811 13.7252C12.877 13.7946 12.9554 13.8497 13.0417 13.8873C13.1279 13.9248 13.2204 13.9442 13.3138 13.9442C13.4072 13.9442 13.4996 13.9248 13.5859 13.8873C13.6722 13.8497 13.7506 13.7946 13.8166 13.7252C13.8827 13.6557 13.935 13.5733 13.9708 13.4826C14.0065 13.3919 14.0249 13.2946 14.0249 13.1964C14.0249 13.0982 14.0065 13.001 13.9708 12.9103C13.935 12.8195 13.8827 12.7371 13.8166 12.6677L10.3289 9.00017L13.8166 5.33267C14.0877 5.04767 14.0877 4.56767 13.8166 4.28267Z" fill="#808080"/>
    </symbol>
    <symbol id="voice" viewBox="0 0 16 22" fill="none">
    <path d="M8 1C7.20435 1 6.44129 1.31607 5.87868 1.87868C5.31607 2.44129 5 3.20435 5 4V11C5 11.7956 5.31607 12.5587 5.87868 13.1213C6.44129 13.6839 7.20435 14 8 14C8.79565 14 9.55871 13.6839 10.1213 13.1213C10.6839 12.5587 11 11.7956 11 11V4C11 3.20435 10.6839 2.44129 10.1213 1.87868C9.55871 1.31607 8.79565 1 8 1Z" stroke="#808080" stroke-width="2" stroke-linecap="round" stroke-linejoin="round"/>
    <path d="M15 9V11C15 12.8565 14.2625 14.637 12.9497 15.9497C11.637 17.2625 9.85652 18 8 18M8 18C6.14348 18 4.36301 17.2625 3.05025 15.9497C1.7375 14.637 1 12.8565 1 11V9M8 18V21" stroke="#808080" stroke-width="2" stroke-linecap="round" stroke-linejoin="round"/>
    </symbol>
    <symbol id="pdf" viewBox="0 0 23 23" fill="none">
    <path d="M16.8354 1.48926L20.6385 5.65801V21.5108H6.43164V21.5625H20.6871V5.71048L16.8354 1.48926Z" fill="#909090"/>
    <path d="M16.7885 1.4375H6.3833V21.5108H20.6387V5.65872L16.7885 1.4375Z" fill="#F4F4F4"/>
    <path d="M6.27856 2.51562H1.91089V7.42253H15.6496V2.51562H6.27856Z" fill="#7A7B7C"/>
    <path d="M15.7227 7.33921H1.99976V2.42871H15.7227V7.33921Z" fill="#DD2025"/>
    <path d="M6.5501 3.25893H5.65674V6.70893H6.35939V5.54527L6.51455 5.55462C6.66532 5.55189 6.81466 5.52349 6.95679 5.47052C7.0814 5.42546 7.19603 5.35431 7.29376 5.26137C7.39321 5.17283 7.47162 5.06109 7.52274 4.93506C7.59129 4.72554 7.61578 4.50287 7.59451 4.28243C7.59024 4.12496 7.56399 3.969 7.51659 3.81956C7.47344 3.71168 7.40941 3.61442 7.32856 3.53399C7.24772 3.45356 7.15183 3.3917 7.04701 3.35237C6.95638 3.31787 6.86275 3.29283 6.76745 3.27762C6.69529 3.26591 6.62242 3.25966 6.54941 3.25893M6.42023 4.90774H6.35939V3.84399H6.49131C6.54953 3.83958 6.60796 3.84898 6.66226 3.87149C6.71656 3.89401 6.76536 3.92907 6.80505 3.97409C6.88729 4.08982 6.93122 4.23068 6.93013 4.37515C6.93013 4.55196 6.93013 4.71224 6.77839 4.82509C6.66907 4.88831 6.54464 4.9175 6.42023 4.90774ZM8.92942 3.24959C8.85355 3.24959 8.77973 3.25534 8.72778 3.25749L8.5651 3.2618H8.03196V6.71181H8.65943C8.89922 6.71872 9.13797 6.67598 9.36209 6.58602C9.54247 6.51079 9.70221 6.3895 9.82688 6.23312C9.94811 6.07532 10.0351 5.8916 10.0818 5.69477C10.1355 5.47187 10.1617 5.24262 10.1598 5.01268C10.173 4.74111 10.153 4.46887 10.1003 4.20265C10.0502 4.00669 9.95652 3.82609 9.82688 3.6758C9.72517 3.55445 9.60066 3.45656 9.4612 3.38831C9.34143 3.33003 9.21545 3.28707 9.08594 3.26037C9.03445 3.25142 8.98229 3.24733 8.9301 3.24815M8.8057 6.07787H8.73735V3.87562H8.74624C8.88715 3.85857 9.02973 3.88531 9.15635 3.95252C9.24907 4.03038 9.32463 4.12847 9.37781 4.24002C9.43519 4.35742 9.46827 4.48627 9.47487 4.61809C9.48102 4.77621 9.47487 4.90559 9.47487 5.01268C9.47765 5.13604 9.4701 5.25943 9.45231 5.3814C9.43124 5.50663 9.3923 5.62779 9.3368 5.74077C9.27397 5.84582 9.1891 5.93434 9.08868 5.99952C9.00435 6.05688 8.90448 6.08364 8.80434 6.07571M12.2766 3.2618H10.6157V6.71181H11.3183V5.34331H12.2069V4.70218H11.3183V3.90293H12.2752V3.2618" fill="#464648"/>
    <path d="M15.2504 14.5585C15.2504 14.5585 17.4295 14.143 17.4295 14.9257C17.4295 15.7085 16.0795 15.39 15.2504 14.5585ZM13.6394 14.6181C13.2932 14.6986 12.9558 14.8163 12.6325 14.9696L12.906 14.3227C13.1794 13.6758 13.463 12.7939 13.463 12.7939C13.7893 13.3713 14.1689 13.9135 14.5963 14.4126C14.274 14.4631 13.9545 14.5322 13.6394 14.6196V14.6181ZM12.7768 9.94624C12.7768 9.26414 12.9866 9.07799 13.15 9.07799C13.3133 9.07799 13.4972 9.16064 13.5033 9.75289C13.4501 10.3484 13.3315 10.9355 13.15 11.5023C12.9013 11.0264 12.7725 10.4914 12.7761 9.94839L12.7768 9.94624ZM9.5991 17.5046C8.93062 17.0841 11.001 15.7897 11.3762 15.748C11.3742 15.7487 10.299 17.9445 9.5991 17.5046ZM18.0658 15.0185C18.059 14.9466 17.9975 14.1509 16.6509 14.1847C16.0897 14.1752 15.5287 14.2168 14.9743 14.3091C14.4372 13.7401 13.9747 13.0983 13.599 12.4008C13.8357 11.6816 13.979 10.9321 14.0249 10.1726C14.0051 9.31014 13.8089 8.81564 13.18 8.82283C12.5512 8.83002 12.4596 9.40861 12.5423 10.2697C12.6233 10.8483 12.7762 11.4133 12.9969 11.9501C12.9969 11.9501 12.7064 12.901 12.3222 13.8469C11.9381 14.7928 11.6756 15.2887 11.6756 15.2887C11.0076 15.5174 10.3788 15.8571 9.81304 16.295C9.24982 16.8462 9.02084 17.2696 9.31749 17.6929C9.57313 18.0581 10.4678 18.1407 11.2676 17.0389C11.6925 16.4698 12.0807 15.8714 12.4295 15.2477C12.4295 15.2477 13.6489 14.8963 14.0283 14.8C14.4076 14.7036 14.8663 14.6275 14.8663 14.6275C14.8663 14.6275 15.9797 15.8055 17.0535 15.7638C18.1273 15.7221 18.0754 15.0889 18.0686 15.0199" fill="#DD2025"/>
    <path d="M16.7358 1.49268V5.71389H20.5861L16.7358 1.49268Z" fill="#909090"/>
    <path d="M16.7883 1.4375V5.65872H20.6386L16.7883 1.4375Z" fill="#F4F4F4"/>
    <path d="M6.49736 3.20327H5.604V6.65327H6.30939V5.49033L6.46524 5.49967C6.616 5.49695 6.76535 5.46855 6.90747 5.41558C7.03207 5.37049 7.1467 5.29935 7.24445 5.20642C7.34315 5.11765 7.42084 5.00593 7.47137 4.88011C7.53993 4.67059 7.56441 4.44792 7.54314 4.22748C7.53887 4.07001 7.51262 3.91405 7.46522 3.76461C7.42207 3.65673 7.35804 3.55948 7.27719 3.47905C7.19635 3.39861 7.10047 3.33676 6.99565 3.29742C6.9046 3.26259 6.8105 3.23731 6.71472 3.22195C6.64256 3.21025 6.56969 3.204 6.49668 3.20327M6.36749 4.85208H6.30666V3.78833H6.43926C6.49748 3.78391 6.55591 3.79331 6.61021 3.81583C6.66451 3.83835 6.71331 3.87341 6.753 3.91842C6.83524 4.03415 6.87917 4.17502 6.87808 4.31949C6.87808 4.4963 6.87808 4.65658 6.72634 4.76942C6.61702 4.83265 6.49259 4.86111 6.36818 4.85136M8.87668 3.19392C8.80081 3.19392 8.72699 3.19967 8.67505 3.20183L8.51442 3.20614H7.98128V6.65614H8.60875C8.84854 6.66305 9.08729 6.62032 9.3114 6.53036C9.49179 6.45512 9.65153 6.33384 9.77619 6.17745C9.89742 6.01966 9.98443 5.83593 10.0311 5.63911C10.0848 5.4162 10.111 5.18695 10.1091 4.95702C10.1223 4.68544 10.1023 4.4132 10.0496 4.14698C9.99956 3.95103 9.90583 3.77043 9.77619 3.62014C9.67448 3.49879 9.54997 3.4009 9.41051 3.33264C9.29075 3.27436 9.16476 3.23141 9.03526 3.2047C8.98376 3.19576 8.93161 3.19167 8.87942 3.19248M8.75502 6.0222H8.68667V3.81995H8.69555C8.83647 3.8029 8.97904 3.82964 9.10566 3.89686C9.19839 3.97472 9.27395 4.07281 9.32712 4.18436C9.38451 4.30176 9.41759 4.43061 9.42418 4.56242C9.43033 4.72055 9.42418 4.84992 9.42418 4.95702C9.42697 5.08038 9.41942 5.20376 9.40163 5.32574C9.38056 5.45096 9.34161 5.57212 9.28611 5.68511C9.22329 5.79016 9.13841 5.87868 9.038 5.94386C8.95366 6.00122 8.8538 6.02797 8.75365 6.02005M12.2239 3.20614H10.5629V6.65614H11.2656V5.28764H12.1542V4.64652H11.2656V3.84727H12.2225V3.20614" fill="white"/>
    </symbol>

</svg>
 
